<?xml version="1.0" encoding="iso-8859-1"?>
<!-- Generator: Adobe Illustrator 19.0.0, SVG Export Plug-In . SVG Version: 6.00 Build 0)  -->
<svg version="1.1" id="Capa_1" xmlns="http://www.w3.org/2000/svg" xmlns:xlink="http://www.w3.org/1999/xlink" x="0px" y="0px"
	 viewBox="0 0 512.003 512.003" style="enable-background:new 0 0 512.003 512.003;" xml:space="preserve">
<g>
	<g>
		<g>
			<path d="M383.879,306.116c0.047-1.46,0.123-2.892,0.123-4.401c0-70.692-57.308-128-128-128s-128,57.308-128,128
				c0,1.509,0.076,2.94,0.123,4.401c42.011-9.124,84.887-13.665,127.877-13.544C298.991,292.451,341.868,296.992,383.879,306.116z
				 M179.394,251.859c-1.782,2.745-4.895,4.328-8.162,4.151c-3.268-0.177-6.191-2.088-7.665-5.009
				c-1.474-2.921-1.275-6.408,0.524-9.142c20.208-31.121,54.804-49.888,91.911-49.857c5.049,0,9.143,4.093,9.143,9.143
				c0,5.049-4.093,9.143-9.143,9.143C225.072,210.269,196.237,225.917,179.394,251.859z"/>
			<path d="M24.116,364.312c42.039,90.098,132.462,147.689,231.885,147.689s189.846-57.591,231.885-147.689
				c-57.884-34.011-141.733-53.454-231.885-53.454S82,330.301,24.116,364.312z"/>
			<path d="M466.891,110.79C419.12,41.394,340.25-0.039,256.001,0.001C171.753-0.039,92.883,41.394,45.112,110.789
				s-58.321,157.859-28.209,236.543c29.263-16.329,60.557-28.714,93.069-36.833c-0.169-2.849-0.254-5.777-0.257-8.783
				c0-80.791,65.494-146.286,146.286-146.286s146.286,65.494,146.286,146.286c0,3.002-0.086,5.93-0.257,8.783
				c32.512,8.118,63.807,20.504,93.069,36.833C525.211,268.649,514.662,180.185,466.891,110.79z M94.035,272.343
				c-0.411,4.72-4.359,8.344-9.097,8.35c-0.536,0-1.07-0.046-1.598-0.138l-36.018-6.353c-4.973-0.878-8.293-5.621-7.415-10.594
				c0.878-4.973,5.621-8.293,10.594-7.415l36.018,6.353C91.184,263.372,94.446,267.624,94.035,272.343z M113.484,219.43
				c-2.526,4.372-8.117,5.871-12.491,3.348l-31.679-18.286c-2.831-1.632-4.576-4.651-4.577-7.92s1.742-6.288,4.573-7.922
				c2.83-1.634,6.318-1.633,9.147,0.002l31.679,18.286c2.101,1.212,3.634,3.209,4.262,5.552
				C115.025,214.834,114.697,217.33,113.484,219.43z M153.447,169.442c-0.211,2.416-1.373,4.648-3.231,6.207
				c-1.857,1.559-4.257,2.315-6.672,2.103s-4.646-1.375-6.203-3.233l-23.509-28.018c-2.111-2.5-2.725-5.937-1.609-9.012
				c1.115-3.076,3.79-5.32,7.013-5.885c3.222-0.565,6.501,0.635,8.597,3.148l23.509,28.018
				C152.9,164.626,153.658,167.027,153.447,169.442z M204.878,142.345c-1.025,2.198-2.882,3.897-5.162,4.724v0
				c-1.001,0.369-2.059,0.558-3.125,0.558c-3.844-0.002-7.277-2.409-8.589-6.022l-12.509-34.366
				c-1.128-3.072-0.529-6.512,1.572-9.021c2.101-2.509,5.383-3.703,8.605-3.131c3.222,0.572,5.892,2.823,7.001,5.902l12.509,34.366
				C206.012,137.632,205.903,140.147,204.878,142.345z M265.144,128.001c0,5.049-4.093,9.143-9.143,9.143s-9.143-4.093-9.143-9.143
				V91.43c0-5.049,4.093-9.143,9.143-9.143s9.143,4.093,9.143,9.143V128.001z M336.51,107.238L336.51,107.238l-12.509,34.366
				c-1.312,3.613-4.745,6.02-8.589,6.022c-1.066,0-2.125-0.189-3.125-0.558c-2.28-0.827-4.137-2.526-5.162-4.724
				c-1.025-2.198-1.134-4.713-0.302-6.991l12.509-34.366c1.109-3.079,3.779-5.329,7.001-5.901c3.222-0.572,6.504,0.622,8.605,3.131
				C337.039,100.726,337.639,104.167,336.51,107.238z M367.653,177.787c-3.551-0.004-6.779-2.064-8.277-5.283
				c-1.499-3.219-0.997-7.015,1.286-9.735l23.509-28.018c2.096-2.513,5.374-3.713,8.597-3.148c3.222,0.565,5.897,2.81,7.012,5.885
				c1.115,3.076,0.502,6.513-1.609,9.012l-23.509,28.018C372.928,176.596,370.359,177.793,367.653,177.787z M406.448,224.001
				c-4.141,0.005-7.769-2.773-8.842-6.772c-1.074-3.999,0.675-8.221,4.262-10.29l31.679-18.286
				c4.374-2.522,9.963-1.022,12.487,3.351s1.027,9.963-3.344,12.489l-31.679,18.286C409.624,223.581,408.05,224.003,406.448,224.001
				z M464.68,274.202l-36.018,6.353c-0.528,0.092-1.063,0.138-1.598,0.138c-4.737-0.007-8.685-3.631-9.096-8.35
				c-0.411-4.72,2.851-8.971,7.516-9.797l36.018-6.353c4.973-0.878,9.716,2.442,10.594,7.415
				C472.973,268.582,469.653,273.325,464.68,274.202z"/>
		</g>
	</g>
</g>
<g>
</g>
<g>
</g>
<g>
</g>
<g>
</g>
<g>
</g>
<g>
</g>
<g>
</g>
<g>
</g>
<g>
</g>
<g>
</g>
<g>
</g>
<g>
</g>
<g>
</g>
<g>
</g>
<g>
</g>
</svg>
